<svg id="Layer_5" enable-background="new 0 0 64 64" height="512" viewBox="0 0 64 64" width="512" xmlns="http://www.w3.org/2000/svg" xmlns:xlink="http://www.w3.org/1999/xlink"><linearGradient id="SVGID_1_" gradientUnits="userSpaceOnUse" x1="32" x2="32" y1="63" y2="1"><stop offset="0" stop-color="#9f2fff"/><stop offset="1" stop-color="#0bb1d3"/></linearGradient><path d="m63 42v-8.449l-18.62-16.551h-9.38v-4h4.245l-9.833-10.926c-.614-.682-1.493-1.074-2.412-1.074s-1.798.392-2.412 1.074l-9.833 10.926h4.245v4h-1.414l-16.586 16.586v8.414c0 1.641.806 3.088 2.031 4-1.225.912-2.031 2.359-2.031 4s.806 3.088 2.031 4c-1.225.912-2.031 2.359-2.031 4 0 2.757 2.243 5 5 5h22 30c2.757 0 5-2.243 5-5 0-1.641-.806-3.088-2.031-4 1.225-.912 2.031-2.359 2.031-4s-.806-3.088-2.031-4c1.225-.912 2.031-2.359 2.031-4zm-7.969 4c-1.225.912-2.031 2.359-2.031 4s.806 3.088 2.031 4c-1.225.912-2.031 2.359-2.031 4 0 1.13.391 2.162 1.026 3h-3.026v-15c0-2.757-2.243-5-5-5h-6c-2.757 0-5 2.243-5 5v15h-3.026c.635-.838 1.026-1.87 1.026-3 0-1.641-.806-3.088-2.031-4 1.225-.912 2.031-2.359 2.031-4s-.806-3.088-2.031-4c1.225-.912 2.031-2.359 2.031-4 0-1.13-.391-2.162-1.026-3h22.051c-.634.838-1.025 1.87-1.025 3 0 1.641.806 3.088 2.031 4zm-18.031 8.816c.314.112.648.184 1 .184 1.654 0 3-1.346 3-3s-1.346-3-3-3c-.352 0-.686.072-1 .184v-3.184c0-1.654 1.346-3 3-3h6c1.654 0 3 1.346 3 3v15h-12zm0-2.816c0-.551.448-1 1-1s1 .449 1 1-.448 1-1 1-1-.449-1-1zm-12-2c0-1.654 1.346-3 3-3s3 1.346 3 3-1.346 3-3 3-3-1.346-3-3zm0-8c0-1.654 1.346-3 3-3s3 1.346 3 3-1.346 3-3 3-3-1.346-3-3zm-22-5v-2h24v2h-21zm25.586-18-14 14h-4.172l14-14zm15.454.374 15.33 13.626h-28.956zm-16.454 13.626h-3.172l14-14h3.172zm-6 0h-4.172l14-14h4.172zm7.414 4v-2h32v2zm-2.926-33.588c.473-.523 1.379-.523 1.852 0l6.829 7.588h-15.51zm-5.074 9.588h12v4h-12zm-2.586 6h3.172l-14 14h-3.172zm-15.414 23c0-1.654 1.346-3 3-3h18.026c-.635.838-1.026 1.87-1.026 3s.391 2.162 1.026 3h-18.026c-1.654 0-3-1.346-3-3zm0 8c0-1.654 1.346-3 3-3h18.026c-.635.838-1.026 1.87-1.026 3s.391 2.162 1.026 3h-18.026c-1.654 0-3-1.346-3-3zm0 8c0-1.654 1.346-3 3-3h18.026c-.635.838-1.026 1.87-1.026 3s.391 2.162 1.026 3h-18.026c-1.654 0-3-1.346-3-3zm22 0c0-1.654 1.346-3 3-3s3 1.346 3 3-1.346 3-3 3-3-1.346-3-3zm36 0c0 1.654-1.346 3-3 3s-3-1.346-3-3 1.346-3 3-3 3 1.346 3 3zm0-8c0 1.654-1.346 3-3 3s-3-1.346-3-3 1.346-3 3-3 3 1.346 3 3zm-3-5c-1.654 0-3-1.346-3-3s1.346-3 3-3 3 1.346 3 3-1.346 3-3 3zm-14-14c2.206 0 4-1.794 4-4s-1.794-4-4-4-4 1.794-4 4 1.794 4 4 4zm0-6c1.103 0 2 .897 2 2s-.897 2-2 2-2-.897-2-2 .897-2 2-2z" fill="url(#SVGID_1_)"/></svg>