<svg id="Layer_5" enable-background="new 0 0 64 64" height="512" viewBox="0 0 64 64" width="512" xmlns="http://www.w3.org/2000/svg" xmlns:xlink="http://www.w3.org/1999/xlink"><linearGradient id="SVGID_1_" gradientUnits="userSpaceOnUse" x1="32" x2="32" y1="63.002" y2="1"><stop offset="0" stop-color="#9f2fff"/><stop offset="1" stop-color="#0bb1d3"/></linearGradient><path d="m36 14c1.654 0 3-1.346 3-3s-1.346-3-3-3-3 1.346-3 3 1.346 3 3 3zm0-4c.552 0 1 .449 1 1s-.448 1-1 1-1-.449-1-1 .448-1 1-1zm-5 1c0-1.654-1.346-3-3-3s-3 1.346-3 3 1.346 3 3 3 3-1.346 3-3zm-4 0c0-.551.448-1 1-1s1 .449 1 1-.448 1-1 1-1-.449-1-1zm-2.269 15.456c-7.867 3.259-12.536 11.159-11.617 19.658.946 8.745 7.977 15.796 16.717 16.766.738.082 1.472.122 2.199.122 4.685 0 9.107-1.681 12.639-4.842 4.023-3.602 6.331-8.763 6.331-14.16 0-.22-.017-.436-.024-.654.008-.116.024-.227.024-.346 0-.353-.048-.687-.118-1.011-.725-6.875-5.116-12.843-11.616-15.535-1.176-.487-1.99-1.494-2.205-2.658 1.13-.43 1.939-1.516 1.939-2.796v-2.5l.133-.1c2.422-1.816 3.867-4.707 3.867-7.733 0-5.331-4.337-9.667-9.667-9.667h-2.666c-5.33 0-9.667 4.336-9.667 9.667 0 3.027 1.445 5.918 3.867 7.733l.133.1v2.5c0 1.279.809 2.366 1.939 2.797-.215 1.164-1.031 2.172-2.208 2.659zm18.604 30.214c-3.649 3.267-8.364 4.771-13.283 4.222-7.816-.867-14.104-7.172-14.949-14.993-.212-1.966-.085-3.894.333-5.726 2.287.489 5.15 1.97 8.165 3.535 4.781 2.48 10.201 5.292 15.399 5.292 4.427 0 7.711-.7 9.715-2.022-.663 3.711-2.53 7.141-5.38 9.692zm5.574-14.337c.029.294.048.59.062.887-.309 3.495-7.675 3.78-9.971 3.78-3.606 0-7.493-1.578-11.172-3.383 2.812-2.289 6.757-4.617 11.172-4.617 2.197 0 9.047.254 9.909 3.333zm-10.409-14.031c4.674 1.935 8.127 5.764 9.644 10.383-2.033-1.101-5.111-1.685-9.144-1.685-5.367 0-10.016 2.964-13.116 5.637-.459-.236-.914-.472-1.362-.704-3.07-1.593-5.992-3.104-8.519-3.681 1.573-4.405 4.924-8.055 9.495-9.948 1.92-.795 3.217-2.51 3.454-4.473.393-.132.748-.34 1.049-.611.532.48 1.229.78 2 .78s1.468-.301 2-.78c.301.272.656.479 1.049.611.236 1.963 1.531 3.677 3.45 4.471zm-15.5-17.635c0-4.228 3.439-7.667 7.667-7.667h2.666c4.228 0 7.667 3.439 7.667 7.667 0 2.4-1.146 4.693-3.066 6.134l-.934.699v3.5c0 .551-.448 1-1 1s-1-.449-1-1v-3h-2v3c0 .551-.448 1-1 1s-1-.449-1-1v-3h-2v3c0 .551-.448 1-1 1s-1-.449-1-1v-3.5l-.934-.7c-1.92-1.44-3.066-3.733-3.066-6.133zm2 39.333c-1.654 0-3 1.346-3 3s1.346 3 3 3 3-1.346 3-3-1.346-3-3-3zm0 4c-.552 0-1-.449-1-1s.448-1 1-1 1 .449 1 1-.448 1-1 1zm11-2c-1.654 0-3 1.346-3 3s1.346 3 3 3 3-1.346 3-3-1.346-3-3-3zm0 4c-.552 0-1-.449-1-1s.448-1 1-1 1 .449 1 1-.448 1-1 1zm-9-25c-1.654 0-3 1.346-3 3s1.346 3 3 3 3-1.346 3-3-1.346-3-3-3zm0 4c-.552 0-1-.449-1-1s.448-1 1-1 1 .449 1 1-.448 1-1 1zm-19-12c-2.206 0-4 1.794-4 4s1.794 4 4 4 4-1.794 4-4-1.794-4-4-4zm0 6c-1.103 0-2-.897-2-2s.897-2 2-2 2 .897 2 2-.897 2-2 2zm6-18c-1.654 0-3 1.346-3 3s1.346 3 3 3 3-1.346 3-3-1.346-3-3-3zm0 4c-.552 0-1-.449-1-1s.448-1 1-1 1 .449 1 1-.448 1-1 1zm41 12c0-1.654-1.346-3-3-3s-3 1.346-3 3 1.346 3 3 3 3-1.346 3-3zm-4 0c0-.551.448-1 1-1s1 .449 1 1-.448 1-1 1-1-.449-1-1zm8-20c-2.206 0-4 1.794-4 4s1.794 4 4 4 4-1.794 4-4-1.794-4-4-4zm0 6c-1.103 0-2-.897-2-2s.897-2 2-2 2 .897 2 2-.897 2-2 2zm-55 31c-1.654 0-3 1.346-3 3s1.346 3 3 3 3-1.346 3-3-1.346-3-3-3zm0 4c-.552 0-1-.449-1-1s.448-1 1-1 1 .449 1 1-.448 1-1 1zm52 4c-1.654 0-3 1.346-3 3s1.346 3 3 3 3-1.346 3-3-1.346-3-3-3zm0 4c-.552 0-1-.449-1-1s.448-1 1-1 1 .449 1 1-.448 1-1 1zm3-18c-2.206 0-4 1.794-4 4s1.794 4 4 4 4-1.794 4-4-1.794-4-4-4zm0 6c-1.103 0-2-.897-2-2s.897-2 2-2 2 .897 2 2-.897 2-2 2zm-48 17c1.654 0 3-1.346 3-3s-1.346-3-3-3-3 1.346-3 3 1.346 3 3 3zm0-4c.552 0 1 .449 1 1s-.448 1-1 1-1-.449-1-1 .448-1 1-1z" fill="url(#SVGID_1_)"/></svg>