<svg id="Layer_5" enable-background="new 0 0 64 64" height="512" viewBox="0 0 64 64" width="512" xmlns="http://www.w3.org/2000/svg" xmlns:xlink="http://www.w3.org/1999/xlink"><linearGradient id="SVGID_1_" gradientUnits="userSpaceOnUse" x1="32" x2="32" y1="63" y2="1"><stop offset="0" stop-color="#9f2fff"/><stop offset="1" stop-color="#0bb1d3"/></linearGradient><path d="m46 1h-2c-1.302 0-2.402.839-2.816 2h-18.368c-.414-1.161-1.514-2-2.816-2h-2c-9.374 0-17 7.626-17 17v6c0 1.654 1.346 3 3 3h5.264c1.148 3.67 1.736 7.475 1.736 11.324v1.581l2.112.211 1.959 18.61.587.213c.456.166 11.225 4.061 16.342 4.061s15.886-3.895 16.342-4.061l.587-.213 1.959-18.61 2.112-.211v-1.581c0-3.849.588-7.654 1.736-11.324h5.264c1.654 0 3-1.346 3-3v-6c0-9.374-7.626-17-17-17zm14.949 16h-.949c-4.963 0-9-4.037-9-9v-4.125c5.515 1.959 9.546 7.047 9.949 13.125zm-14.12-13.958c.737.041 1.466.117 2.171.26v4.698c0 6.065 4.935 11 11 11h1v2.184c-.314-.112-.648-.184-1-.184h-13v-17c0-.337-.068-.655-.171-.958zm-9.876 1.958c-.234 3.299-2.063 6.236-4.953 7.868-2.89-1.632-4.719-4.569-4.953-7.868zm-13.953 17v-17h2.025c.248 4.231 2.699 7.979 6.528 9.895l.447.223.447-.224c3.829-1.915 6.281-5.663 6.528-9.895h2.025v17c0 1.785.948 3.343 2.358 4.227l-4.893 4.893c-1.817-1.326-4.047-2.119-6.465-2.119s-4.648.793-6.466 2.12l-4.893-4.893c1.411-.884 2.359-2.442 2.359-4.227zm10 26.941v-2.021c1.815-.262 3.405-1.217 4.492-2.594l1.742 1.006c-1.453 1.966-3.681 3.325-6.234 3.609zm-8.234-3.609 1.742-1.006c1.087 1.377 2.677 2.333 4.492 2.594v2.021c-2.553-.284-4.781-1.643-6.234-3.609zm-6.234-18.386 5.496 5.496c-.519.547-.98 1.148-1.379 1.793l-7.235-7.235h2.586c.182 0 .355-.035.532-.054zm22.468 13.054c0 1.282-.273 2.499-.758 3.604l-1.746-1.008c.322-.804.504-1.679.504-2.596s-.182-1.792-.505-2.595l1.746-1.008c.486 1.104.759 2.321.759 3.603zm-9 5c-2.757 0-5-2.243-5-5s2.243-5 5-5 5 2.243 5 5-2.243 5-5 5zm-9-5c0-1.282.273-2.499.758-3.604l1.746 1.008c-.322.804-.504 1.679-.504 2.596s.182 1.792.505 2.595l-1.746 1.008c-.486-1.104-.759-2.321-.759-3.603zm16.234-5.332-1.742 1.006c-1.087-1.377-2.677-2.333-4.492-2.594v-2.021c2.553.284 4.781 1.643 6.234 3.609zm-8.234-1.588c-1.815.262-3.405 1.217-4.492 2.594l-1.742-1.006c1.453-1.967 3.681-3.326 6.234-3.609zm8.972-.638 5.496-5.496c.177.019.35.054.532.054h2.586l-7.235 7.235c-.399-.644-.86-1.245-1.379-1.793zm-35.972-13.442c6.065 0 11-4.935 11-11v-4.698c.706-.144 1.434-.22 2.171-.26-.103.303-.171.621-.171.958v17h-13c-.352 0-.686.072-1 .184v-2.184zm9-15.125v4.125c0 4.963-4.037 9-9 9h-.949c.403-6.078 4.434-11.166 9.949-13.125zm-10 20.125c0-.552.448-1 1-1h13c1.103 0 2-.897 2-2v-17c0-.552.448-1 1-1s1 .448 1 1v18c0 1.654-1.346 3-3 3h-14c-.552 0-1-.448-1-1zm8.359 3h1.227l9.13 9.13c-.331.878-.564 1.803-.661 2.77l-8.057-.806c-.02-3.764-.573-7.489-1.639-11.094zm9.687 13.91c.17 2.067.916 3.969 2.074 5.556l-6.631 6.631-1.345-12.777zm-4.287 14.745 7.684-7.684c.547.519 1.148.98 1.793 1.379l-8.273 8.273c-.413-.14-.768-.263-1.033-.355zm3.331 2.669 8.04-8.04c1.206.455 2.507.716 3.87.716s2.664-.261 3.87-.716l8.04 8.04c-3.604 1.153-8.929 2.676-11.91 2.676s-8.306-1.523-11.91-2.676zm25.948-.7-8.273-8.273c.645-.399 1.245-.86 1.793-1.379l7.684 7.684-.17 1.613c-.266.092-.621.215-1.034.355zm1.473-4.528-6.631-6.631c1.159-1.587 1.904-3.489 2.074-5.556l5.902-.59zm3.49-15.001-8.057.805c-.096-.967-.329-1.893-.661-2.77l9.13-9.13h1.227c-1.065 3.605-1.618 7.33-1.639 11.095zm8.999-13.095h-14c-1.654 0-3-1.346-3-3v-18c0-.552.448-1 1-1s1 .448 1 1v17c0 1.103.897 2 2 2h13c.552 0 1 .448 1 1s-.448 1-1 1zm-28 12c-1.654 0-3 1.346-3 3s1.346 3 3 3 3-1.346 3-3-1.346-3-3-3zm0 4c-.552 0-1-.448-1-1s.448-1 1-1 1 .448 1 1-.448 1-1 1zm7-22h-14v8h14zm-2 6h-10v-4h10z" fill="url(#SVGID_1_)"/></svg>