<svg id="Layer_5" enable-background="new 0 0 64 64" height="512" viewBox="0 0 64 64" width="512" xmlns="http://www.w3.org/2000/svg" xmlns:xlink="http://www.w3.org/1999/xlink"><linearGradient id="SVGID_1_" gradientUnits="userSpaceOnUse" x1="32" x2="32" y1="63" y2="1"><stop offset="0" stop-color="#9f2fff"/><stop offset="1" stop-color="#0bb1d3"/></linearGradient><path d="m40 5c-1.654 0-3 1.346-3 3s1.346 3 3 3 3-1.346 3-3-1.346-3-3-3zm0 4c-.551 0-1-.449-1-1s.449-1 1-1 1 .449 1 1-.449 1-1 1zm-16 2c1.654 0 3-1.346 3-3s-1.346-3-3-3-3 1.346-3 3 1.346 3 3 3zm0-4c.551 0 1 .449 1 1s-.449 1-1 1-1-.449-1-1 .449-1 1-1zm8 56c16.542 0 30-13.458 30-30 0-10.752-5.77-20.664-15.082-26.014-.494-3.38-3.403-5.986-6.918-5.986-3.86 0-7 3.14-7 7s3.14 7 7 7c1.204 0 2.337-.306 3.327-.843 6.594 3.973 10.673 11.134 10.673 18.843 0 12.131-9.869 22-22 22s-22-9.869-22-22c0-7.709 4.079-14.87 10.673-18.843.99.537 2.123.843 3.327.843 3.86 0 7-3.14 7-7s-3.14-7-7-7c-3.515 0-6.424 2.606-6.918 5.986-9.312 5.35-15.082 15.262-15.082 26.014 0 16.542 13.458 30 30 30zm-17.051-7.813c.235.009.468.022.707.022 1.759 0 3.645-.26 5.598-.76 1.892.952 3.925 1.663 6.061 2.088-2.06 1.262-4.145 2.061-6.052 2.318-2.272-.946-4.391-2.186-6.314-3.668zm20.681 5.57c1.441-1.33 2.768-3.015 3.937-4.986 2.059-.686 3.997-1.639 5.767-2.826-.564 2.354-1.473 4.397-2.642 5.93-2.225.922-4.594 1.561-7.062 1.882zm24.129-31.384c-1.333-1.445-3.023-2.775-4.999-3.946-.682-2.04-1.63-3.979-2.822-5.761 2.352.563 4.394 1.47 5.927 2.637.931 2.245 1.574 4.619 1.894 7.07zm-4.225-1.055c1.958 1.422 3.498 3.045 4.466 4.712-.003 2.506-.341 4.933-.964 7.245-.678-1.843-1.728-3.717-3.104-5.553.04-.57.068-1.143.068-1.722 0-1.588-.161-3.155-.466-4.682zm-20.534-20.318c0-2.757 2.243-5 5-5s5 2.243 5 5-2.243 5-5 5-5-2.243-5-5zm10.03 4.856c.933-.966 1.589-2.196 1.846-3.568 3.927 2.467 7.119 5.827 9.371 9.733-1.783-.822-3.851-1.404-6.123-1.728-1.465-1.694-3.174-3.192-5.094-4.437zm10.508 24.83c1.262 2.06 2.061 4.145 2.318 6.052-.945 2.268-2.183 4.383-3.661 6.304.076-1.956-.177-4.082-.744-6.297.951-1.892 1.662-3.924 2.087-6.059zm-3.588 8.638c.379 2.383.322 4.612-.168 6.473-1.725 1.724-3.678 3.218-5.802 4.448.822-1.783 1.403-3.851 1.727-6.122 1.617-1.404 3.048-3.016 4.243-4.799zm-15.271 10.215c-1.421 1.956-3.043 3.493-4.708 4.461-2.506-.003-4.933-.341-7.245-.964 1.843-.678 3.717-1.728 5.553-3.104.569.04 1.142.068 1.721.068 1.601 0 3.165-.161 4.679-.461zm-18.002-3.588c-2.383.379-4.612.322-6.474-.168-1.724-1.725-3.218-3.678-4.448-5.802 1.783.822 3.851 1.403 6.122 1.727 1.404 1.617 3.016 3.047 4.8 4.243zm-10.216-15.272c-1.956-1.421-3.493-3.042-4.46-4.708.003-2.479.338-4.909.965-7.24.678 1.84 1.726 3.711 3.1 5.545-.041.571-.066 1.146-.066 1.724 0 1.601.161 3.165.461 4.679zm.768 2.888c.686 2.059 1.639 3.997 2.826 5.767-2.354-.564-4.397-1.473-5.93-2.642-.923-2.224-1.562-4.593-1.883-7.061 1.332 1.44 3.017 2.767 4.987 3.936zm-.763-12.247c-1.262-2.058-2.061-4.141-2.32-6.048.939-2.259 2.17-4.385 3.66-6.324-.077 1.96.176 4.091.745 6.311-.958 1.908-1.662 3.946-2.085 6.061zm15.534-25.32c2.757 0 5 2.243 5 5s-2.243 5-5 5-5-2.243-5-5 2.243-5 5-5zm-6.876 6.288c.256 1.372.913 2.603 1.846 3.568-2.781 1.803-5.124 4.136-6.919 6.826-.38-2.386-.323-4.619.167-6.482 1.469-1.468 3.11-2.784 4.906-3.912z" fill="url(#SVGID_1_)"/></svg>