<svg id="Layer_5" enable-background="new 0 0 64 64" height="512" viewBox="0 0 64 64" width="512" xmlns="http://www.w3.org/2000/svg" xmlns:xlink="http://www.w3.org/1999/xlink"><linearGradient id="SVGID_1_" gradientUnits="userSpaceOnUse" x1="32" x2="32" y1="63" y2="1"><stop offset="0" stop-color="#9f2fff"/><stop offset="1" stop-color="#0bb1d3"/></linearGradient><path d="m59.553 1.105c-1.17.586-2.481.895-3.789.895h-.527c-1.309 0-2.619-.309-3.789-.895l-.212-.105h-2.65l-.293.293c-2.391 2.391-5.569 3.707-8.95 3.707h-8.527c-.414-1.161-1.514-2-2.816-2h-10c-1.383 0-2.539.946-2.885 2.221l-5.571 1.672c-2.448.734-4.986 1.107-7.544 1.107h-1v2.303l2.465 3.697h.535c1.229 0 2.45.179 3.629.533l7.487 2.246c.345 1.275 1.501 2.221 2.884 2.221v17c0 .395.081.77.22 1.116-1.275.345-2.22 1.501-2.22 2.884v20c0 1.654 1.346 3 3 3h8c1.654 0 3-1.346 3-3v-20c0-1.383-.945-2.539-2.22-2.884.139-.346.22-.721.22-1.116v-17c1.302 0 2.402-.839 2.816-2h8.86c.959 0 1.808.611 2.111 1.521.805 2.416 1.213 4.932 1.213 7.479s-.408 5.063-1.213 7.479l-1.281 3.84 4.71-.941c10.305-2.062 17.784-11.186 17.784-21.695v-13.683h-3.236zm-42.553 5.309 4.586 4.586-4.586 4.586zm12 0v9.172l-4.586-4.586zm-6 3.172-4.586-4.586h9.172zm0 2.828 4.586 4.586h-9.172zm-18.458-.404-1.356-2.035c2.35-.099 4.677-.49 6.933-1.167l4.881-1.464v7.312l-6.797-2.039c-1.192-.358-2.421-.561-3.661-.607zm13.458 36.372v-2.764l2.764 1.382zm5-.264 3.764 1.882-3.764 1.882-3.764-1.882zm-2.236 4.882-2.764 1.382v-2.764zm-2.764 3.618 5-2.5 5 2.5v.382h-10zm7.236-3.618 2.764-1.382v2.764zm0-6 2.764-1.382v2.764zm2.764-3.618-5 2.5-5-2.5v-.382h10zm-1 17.618h-8c-.552 0-1-.448-1-1v-1h10v1c0 .552-.448 1-1 1zm1-20h-10v-1c0-.552.448-1 1-1h2 4 2c.552 0 1 .448 1 1zm-2-5c0 .552-.448 1-1 1h-4c-.552 0-1-.448-1-1v-17h6zm13.676-21h-8.676v-8h8.343c3.774 0 7.331-1.417 10.063-4h1.364c1.391.655 2.929 1 4.466 1h.527c.414 0 .827-.029 1.237-.078v10.024c0 7.637-5.062 14.273-12.367 16.342.24-1.413.367-2.846.367-4.288 0-2.763-.442-5.492-1.316-8.111-.577-1.728-2.187-2.889-4.008-2.889zm21.324-12v11.683c0 9.559-6.804 17.858-16.177 19.733l-1.329.266.189-.57c.178-.534.326-1.076.469-1.619l.455-.114c8.475-2.119 14.393-9.699 14.393-18.433v-10.468c.419-.136.831-.29 1.229-.478zm-39 4c0-.552.448-1 1-1s1 .448 1 1-.448 1-1 1-1-.448-1-1zm2 8c0 .552-.448 1-1 1s-1-.448-1-1 .448-1 1-1 1 .448 1 1zm2-4c0-.552.448-1 1-1s1 .448 1 1-.448 1-1 1-1-.448-1-1zm-6 0c0 .552-.448 1-1 1s-1-.448-1-1 .448-1 1-1 1 .448 1 1zm2 23c0-.552.448-1 1-1s1 .448 1 1-.448 1-1 1-1-.448-1-1zm0-12c0-.552.448-1 1-1s1 .448 1 1-.448 1-1 1-1-.448-1-1zm0 4c0-.552.448-1 1-1s1 .448 1 1-.448 1-1 1-1-.448-1-1zm0 4c0-.552.448-1 1-1s1 .448 1 1-.448 1-1 1-1-.448-1-1z" fill="url(#SVGID_1_)"/></svg>