<svg id="Layer_5" enable-background="new 0 0 64 64" height="512" viewBox="0 0 64 64" width="512" xmlns="http://www.w3.org/2000/svg" xmlns:xlink="http://www.w3.org/1999/xlink"><linearGradient id="SVGID_1_" gradientUnits="userSpaceOnUse" x1="32" x2="32" y1="63" y2="1"><stop offset="0" stop-color="#9f2fff"/><stop offset="1" stop-color="#0bb1d3"/></linearGradient><path d="m28 29c-1.654 0-3 1.346-3 3s1.346 3 3 3 3-1.346 3-3-1.346-3-3-3zm0 4c-.551 0-1-.449-1-1s.449-1 1-1 1 .449 1 1-.449 1-1 1zm0 10c6.065 0 11-4.935 11-11s-4.935-11-11-11-11 4.935-11 11 4.935 11 11 11zm-6.382-6 6.382-12.764 6.382 12.764zm.738 2h11.288c-1.545 1.248-3.508 2-5.644 2s-4.099-.752-5.644-2zm14.644-7c0 1.411-.335 2.741-.916 3.931l-6.382-12.765c4.15.799 7.298 4.454 7.298 8.834zm-10.701-8.834-6.382 12.765c-.582-1.19-.917-2.52-.917-3.931 0-4.38 3.148-8.035 7.299-8.834zm-23.299 15.65v19.184c0 2.757 2.243 5 5 5h43v-8h2v-16.184c1.161-.414 2-1.514 2-2.816v-8c0-1.302-.839-2.402-2-2.816v-6.184h8v-6h-8v-2h10v-6h-10v-4h-45c-2.757 0-5 2.243-5 5v19.184c-1.161.414-2 1.514-2 2.816v8c0 1.302.839 2.402 2 2.816zm5 14.184c-1.13 0-2.162.391-3 1.026v-15.026h4v14zm41 8h-41c-1.654 0-3-1.346-3-3s1.346-3 3-3h37v2h-34v2h36v-4h2zm-38-8v-14h3.744c2.52 4.752 7.513 8 13.256 8s10.737-3.248 13.256-8h9.744v14zm17-34c7.168 0 13 5.832 13 13s-5.832 13-13 13-13-5.832-13-13 5.832-13 13-13zm25 17c0 .551-.449 1-1 1h-9.875c.556-1.567.875-3.245.875-5s-.319-3.433-.875-5h9.875c.551 0 1 .449 1 1zm6-21v2h-6v-2zm2-8v2h-8v-2zm-10 18h-9.744c-2.52-4.752-7.513-8-13.256-8s-10.737 3.248-13.256 8h-3.744v-22h40zm-43-22h1v22h-4v-19c0-1.654 1.346-3 3-3zm-5 25c0-.551.449-1 1-1h9.875c-.556 1.567-.875 3.245-.875 5s.319 3.433.875 5h-9.875c-.551 0-1-.449-1-1zm4 3h-2v-2h2zm4 0h-2v-2h2zm0 4h-2v-2h2zm-4 0h-2v-2h2zm38-6h2v2h-2zm4 0h2v2h-2zm0 4h2v2h-2zm-4 0h2v2h-2zm-38 24h2v2h-2zm42-42v-10h-36v10zm-34-8h32v6h-32z" fill="url(#SVGID_1_)"/></svg>