<svg id="Layer_5" enable-background="new 0 0 64 64" height="512" viewBox="0 0 64 64" width="512" xmlns="http://www.w3.org/2000/svg" xmlns:xlink="http://www.w3.org/1999/xlink"><linearGradient id="SVGID_1_" gradientUnits="userSpaceOnUse" x1="32" x2="32" y1="63" y2="1"><stop offset="0" stop-color="#9f2fff"/><stop offset="1" stop-color="#0bb1d3"/></linearGradient><path d="m28 21c0-.552.448-1 1-1s1 .448 1 1-.448 1-1 1-1-.448-1-1zm7-1c-.552 0-1 .448-1 1s.448 1 1 1 1-.448 1-1-.448-1-1-1zm-1 3.764c-.381.762-1.147 1.236-2 1.236s-1.619-.474-2-1.236l-.105-.211-1.789.895.105.21c.722 1.445 2.174 2.342 3.789 2.342s3.067-.897 3.789-2.342l.105-.211-1.789-.895zm21-9.764c0 1.116-.38 2.136-1 2.969v1.031c0 2.757-2.243 5-5 5h-.687c-1.52 0-2.996-.391-4.309-1.108.025 3.054 1.089 6.201 3.171 9.357.635.961.912 2.081.801 3.238-.033.35-.111.688-.218 1.017 2.046 1.938 3.242 4.633 3.242 7.502v3.994c0 1.103-.897 2-2 2v14h-34v-14c-1.103 0-2-.897-2-2v-3.994c0-2.87 1.197-5.565 3.243-7.504-.106-.329-.187-.666-.22-1.014-.111-1.158.166-2.278.802-3.24 2.082-3.156 3.145-6.304 3.17-9.357-1.313.718-2.789 1.109-4.308 1.109h-.687c-2.757 0-5-2.243-5-5v-1.031c-.62-.833-1-1.853-1-2.969v-.382c-.615-.704-1-1.613-1-2.618 0-1.103.897-2 2-2h5.687c1.661 0 3.247.456 4.633 1.293 1.232-5.316 5.995-9.293 11.68-9.293s10.448 3.977 11.681 9.293c1.385-.837 2.972-1.293 4.632-1.293h5.687c1.103 0 2 .897 2 2 0 1.005-.385 1.914-1 2.618zm-26.723 28.696 1.787 1.032c.275-.235.589-.42.936-.543v-2.083c-1.079.219-2.018.8-2.723 1.594zm4.723 3.304c0-.552-.448-1-1-1s-1 .448-1 1 .448 1 1 1 1-.448 1-1zm-5.722 1.571 1.778-1.026c-.034-.177-.056-.358-.056-.545s.022-.368.055-.545l-1.778-1.026c-.166.497-.277 1.019-.277 1.571s.111 1.074.278 1.571zm.999 1.733c.705.794 1.644 1.375 2.723 1.595v-2.083c-.347-.124-.661-.309-.936-.543zm4.723 1.595c1.079-.22 2.018-.801 2.723-1.595l-1.787-1.032c-.275.235-.589.42-.936.543zm3.722-6.47-1.778 1.026c.034.177.056.358.056.545s-.022.368-.055.545l1.778 1.026c.166-.497.277-1.019.277-1.571s-.111-1.074-.278-1.571zm-.999-1.733c-.705-.794-1.644-1.375-2.723-1.595v2.083c.347.124.661.309.936.543zm-1.193-3.215 2.155-5.387-.049-.006c-.853 1.762-2.636 2.912-4.636 2.912-1.999 0-3.782-1.15-4.635-2.913l-.049.006 2.155 5.387c.785-.306 1.636-.48 2.529-.48s1.744.174 2.53.481zm-.14-8.797c-.692.202-1.423.316-2.18.316h-.176c-.84 0-1.65-.13-2.411-.37l-.578 2.312c.462 1.234 1.631 2.058 2.955 2.058 1.325 0 2.494-.824 2.955-2.057zm3.61-7.475v-5.209h-12v4.998c0 3.31 2.707 6.002 6.034 6.002h.176c3.192 0 5.79-2.598 5.79-5.791zm-16-7.209h7.184c-.112-.314-.184-.648-.184-1s.072-.686.184-1h-7.184zm10-2c-.552 0-1 .449-1 1s.448 1 1 1 1-.449 1-1-.448-1-1-1zm10 2v-2h-7.184c.112.314.184.648.184 1s-.072.686-.184 1zm-19.903-4.317.161.16-.156.157h19.794l-.155-.155.162-.162c-.648-4.892-4.837-8.683-9.903-8.683s-9.255 3.791-9.903 8.683zm-6.41 9.317c1.571 0 3.084-.531 4.313-1.495v-1.505-1-4c0-.165.018-.325.025-.488-1.232-.978-2.743-1.512-4.338-1.512h-5.687c0 1.103.897 2 2 2h2v2h-2c-.29 0-.572-.035-.845-.094.387 1.21 1.509 2.094 2.845 2.094h2v2h-2c-.687 0-1.341-.14-1.938-.391.283 1.363 1.492 2.391 2.938 2.391zm2.325 13.158c1.236-.745 2.621-1.244 4.055-1.424l5.13-.642.58-2.321c-2.264-1.416-3.777-3.919-3.777-6.773v-4.998h-2v3.782c0 3.486-1.18 7.042-3.506 10.569-.355.537-.515 1.16-.482 1.807zm-1.012 26.842h3.834l-1.674-10.88c-.057-.371-.096-.745-.123-1.12h-2.037zm5.858 0h18.284l.308-2h-18.9zm24.142-12h-2.037c-.027.375-.066.749-.123 1.119l-1.674 10.881h3.834zm-1.665-12.906c-1.085-.736-2.348-1.212-3.649-1.375l-2.949-.369-2.451 6.128c1.648 1.282 2.714 3.278 2.714 5.522 0 3.859-3.141 7-7 7s-7-3.141-7-7c0-2.244 1.066-4.24 2.714-5.522l-2.451-6.128-2.949.369c-1.302.163-2.564.639-3.649 1.375-2.295 1.555-3.665 4.139-3.665 6.912v3.994h4.06c.134-1.786.597-3.548 1.397-5.149l.648-1.298 1.789.895-.648 1.298c-.815 1.629-1.246 3.454-1.246 5.275 0 .598.046 1.201.137 1.795l1.105 7.184h19.515l1.106-7.185c.091-.592.137-1.196.137-1.794 0-1.821-.431-3.646-1.246-5.276l-.648-1.298 1.789-.895.648 1.298c.801 1.601 1.263 3.364 1.397 5.149h4.06v-3.994c0-2.772-1.37-5.356-3.665-6.911zm.172-3.743c-2.327-3.527-3.507-7.083-3.507-10.569v-3.782h-2v5.209c0 2.817-1.508 5.283-3.754 6.651l.558 2.232 5.13.642c1.433.18 2.818.679 4.055 1.424.032-.647-.128-1.27-.482-1.807zm6.43-13.742c-.596.251-1.25.391-1.937.391h-2v-2h2c1.336 0 2.458-.884 2.845-2.094-.273.059-.555.094-.845.094h-2v-2h2c1.103 0 2-.897 2-2h-5.687c-1.596 0-3.107.534-4.338 1.512.007.163.025.323.025.488v4 1 1.505c1.23.964 2.743 1.495 4.313 1.495h.687c1.446 0 2.655-1.028 2.937-2.391z" fill="url(#SVGID_1_)"/></svg>